HIERARCHY
ROOT Hips
{
	OFFSET	0.00	0.00	0.00
	CHANNELS 6 Xposition Yposition Zposition Zrotation Xrotation Yrotation
	JOINT LeftUpLeg
	{
		OFFSET	 0.126116	-0.065224	 0.014019
		CHANNELS 3 Zrotation Xrotation Yrotation
		JOINT LeftLeg
		{
			OFFSET	 0.000000	 0.569914	 0.000000
			CHANNELS 3 Zrotation Xrotation Yrotation
			JOINT LeftFoot
			{
				OFFSET	 0.000000	 0.544423	 0.000000
				CHANNELS 3 Zrotation Xrotation Yrotation
				JOINT LeftToeBase
				{
					OFFSET	 0.000000	 0.207117	 0.000000
					CHANNELS 3 Zrotation Xrotation Yrotation
					End Site
					{
						OFFSET	 0.000000	 0.207117	 0.000000
					}
				}
			}
		}
	}
	JOINT RightUpLeg
	{
		OFFSET	-0.124023	-0.065224	 0.008373
		CHANNELS 3 Zrotation Xrotation Yrotation
		JOINT RightLeg
		{
			OFFSET	 0.000000	 0.570047	 0.000000
			CHANNELS 3 Zrotation Xrotation Yrotation
			JOINT RightFoot
			{
				OFFSET	 0.000000	 0.544354	 0.000000
				CHANNELS 3 Zrotation Xrotation Yrotation
				JOINT RightToeBase
				{
					OFFSET	 0.000000	 0.207540	 0.000000
					CHANNELS 3 Zrotation Xrotation Yrotation
					End Site
					{
						OFFSET	 0.000000	 0.207540	 0.000000
					}
				}
			}
		}
	}
	JOINT Spine
	{
		OFFSET	 0.000184	 0.117403	 0.007763
		CHANNELS 3 Zrotation Xrotation Yrotation
		JOINT Spine1
		{
			OFFSET	 0.000000	 0.137269	 0.000000
			CHANNELS 3 Zrotation Xrotation Yrotation
			JOINT Spine2
			{
				OFFSET	 0.000000	 0.156879	 0.000000
				CHANNELS 3 Zrotation Xrotation Yrotation
				JOINT LeftShoulder
				{
					OFFSET	 0.080501	 0.160143	 0.002496
					CHANNELS 3 Zrotation Xrotation Yrotation
					JOINT LeftArm
					{
						OFFSET	 0.000000	 0.164363	 0.000000
						CHANNELS 3 Zrotation Xrotation Yrotation
						JOINT LeftForeArm
						{
							OFFSET	 0.000000	 0.364576	 0.000000
							CHANNELS 3 Zrotation Xrotation Yrotation
							JOINT LeftHand
							{
								OFFSET	 0.000000	 0.360812	 0.000000
								CHANNELS 3 Zrotation Xrotation Yrotation
								JOINT LeftHandIndex1
								{
									OFFSET	 0.000000	 0.086006	 0.000000
									CHANNELS 3 Zrotation Xrotation Yrotation
									JOINT LeftHandIndex2
									{
										OFFSET	 0.000000	 0.047237	 0.000000
										CHANNELS 3 Zrotation Xrotation Yrotation
										JOINT LeftHandIndex3
										{
											OFFSET	-0.004284	 0.038165	 0.000551
											CHANNELS 3 Zrotation Xrotation Yrotation
											End Site
											{
												OFFSET	-0.004284	 0.038165	 0.000551
											}
										}
									}
								}
							}
						}
					}
				}
				JOINT Neck
				{
					OFFSET	 0.000000	 0.176489	 0.000000
					CHANNELS 3 Zrotation Xrotation Yrotation
					JOINT Head
					{
						OFFSET	 0.000000	 0.077941	 0.001747
						CHANNELS 3 Zrotation Xrotation Yrotation
						End Site
						{
							OFFSET	 0.000000	 0.077941	 0.001747
						}
					}
				}
				JOINT RightShoulder
				{
					OFFSET	-0.080363	 0.159706	-0.000306
					CHANNELS 3 Zrotation Xrotation Yrotation
					JOINT RightArm
					{
						OFFSET	 0.000000	 0.164196	 0.000000
						CHANNELS 3 Zrotation Xrotation Yrotation
						JOINT RightForeArm
						{
							OFFSET	 0.000000	 0.365611	 0.000000
							CHANNELS 3 Zrotation Xrotation Yrotation
							JOINT RightHand
							{
								OFFSET	 0.000000	 0.360648	 0.000000
								CHANNELS 3 Zrotation Xrotation Yrotation
								JOINT RightHandIndex1
								{
									OFFSET	 0.000000	 0.069977	 0.000000
									CHANNELS 3 Zrotation Xrotation Yrotation
									JOINT RightHandIndex2
									{
										OFFSET	 0.000000	 0.052305	 0.000000
										CHANNELS 3 Zrotation Xrotation Yrotation
										JOINT RightHandIndex3
										{
											OFFSET	 0.009002	 0.042196	 0.000782
											CHANNELS 3 Zrotation Xrotation Yrotation
											End Site
											{
												OFFSET	 0.009002	 0.042196	 0.000782
											}
										}
									}
								}
							}
						}
					}
				}
			}
		}
	}
}
MOTION
Frames:    9
Frame Time: 0.03333334
-0.029812	 1.238064	 0.091681	 1.620717	-4.061014	 179.494800	-177.139200	 24.041780	 13.844450	 3.306618	-32.029880	 3.026041	 49.927760	 47.815350	-68.849170	 5.018810	 29.305620	-5.923589	-176.933000	 14.015760	 3.517336	-2.897933	-30.396560	-1.681282	-68.817980	 58.924020	 78.216830	-0.776586	 31.558800	 2.033220	 1.215678	 4.068534	-10.843480	-4.020901	-1.256600	-3.866478	 4.551695	 4.036044	 17.779480	-110.717000	-0.759010	 87.552830	 13.312990	 58.584200	 9.570098	 4.830638	-0.254696	 0.551511	-10.399170	-10.524520	-49.786270	-5.495252	 14.741960	-6.491943	-7.250494	 12.275230	 2.756892	 4.963066	-4.014628	-0.346955	-0.456490	-10.531920	 2.237241	 0.448158	 17.866160	-31.007980	 105.983300	 4.033735	-89.915010	-1.519134	 62.812840	 12.252250	-4.810671	-0.444651	 34.833980	 5.265729	 9.667745	-92.496390	 2.048322	-2.288438	 8.676501	 14.863360	 20.137810	-6.198905	-8.239867	-2.131385	 0.447455
-0.042982	 1.236863	 0.076832	 0.592603	-6.810615	-176.411200	 178.583700	 27.855330	 18.185460	 3.744078	-35.308040	 3.579017	 49.359640	 49.117230	-70.732220	 5.244209	 32.533850	-4.958680	-179.737000	 16.464370	 7.490099	-3.023798	-31.469620	-2.175753	-70.779790	 59.171730	 80.906280	-0.930908	 31.502080	 2.194674	 0.846188	 4.184757	-9.746957	-7.089826	-3.191155	-2.923049	 5.880388	 6.151376	 16.976060	-110.903700	-4.479716	 86.366950	 11.382110	 58.621810	 9.709707	 4.777300	-0.252370	 0.699238	-6.591819	-15.007980	-38.773510	-4.728677	 15.835830	-6.695315	-7.279311	 12.348640	 2.781762	 4.963066	-4.014628	-0.346955	-0.429078	-9.511600	 1.819853	 2.424693	 18.419240	-34.237270	 104.100200	 7.844167	-90.909000	 3.625652	 64.943950	 14.628600	-4.863050	-0.449485	 32.856080	 1.959985	 4.606365	-95.425630	 6.936039	-16.003750	 9.107557	 14.046740	 17.033750	-5.112000	-8.239867	-2.131385	 0.447455
-0.049029	 1.216871	 0.051193	 0.572011	-10.796690	-168.865600	 171.085600	 35.448340	 27.985830	 5.958690	-48.390290	 6.329362	 48.704240	 53.904510	-77.200620	 4.331162	 36.127980	-5.803877	 176.494200	 21.499530	 16.254680	-3.848953	-37.914130	-3.846583	-80.035880	 59.512280	 91.482790	-0.961987	 29.055430	 2.330890	 0.452813	 4.984820	-7.566128	-10.671250	-4.170095	-1.180548	 6.534228	 9.581573	 15.272050	-109.310500	-3.987587	 87.172290	 21.123020	 57.510830	-2.407817	 4.781239	-0.252013	 0.812136	-4.665517	-19.163440	-23.745910	-3.982425	 15.081180	-7.090942	-7.306949	 12.395800	 2.803015	 4.963066	-4.014628	-0.346955	 1.718797	-9.987003	 0.616824	 5.721623	 17.507010	-40.149770	 101.718400	 10.448680	-89.920860	-3.700837	 65.464680	 25.585330	-4.865611	-0.449786	 30.892980	 2.436286	 0.475291	-89.189900	 11.266270	-28.424100	 10.517420	 13.956780	 17.454920	-5.202816	-8.239867	-2.131385	 0.447455
-0.041484	 1.090059	 0.034206	 0.639796	-16.749130	-162.072800	 158.387000	 50.544700	 38.860820	 19.515480	-74.570820	 20.167990	 54.174220	 58.889420	-83.320360	 3.559516	 45.454570	-4.254426	 163.876200	 46.172710	 23.502100	-24.522060	-78.269240	-24.124360	-79.653150	 59.470670	 97.532880	-2.105216	 39.784300	 4.827496	 0.987368	 7.236887	-7.381988	-12.499470	-0.859885	-0.202874	 4.964335	 14.557080	 15.007510	-105.131400	 1.399539	 89.828550	 40.616150	 53.097320	-22.885980	 4.756079	-0.255042	 0.652424	-2.545419	-20.890440	-6.280928	-3.786099	 10.964300	-7.574268	-7.095910	 10.719760	 2.478537	 4.963066	-4.014628	-0.346955	 4.056367	-11.430990	-0.130960	 7.794065	 11.219710	-42.024060	 97.765340	 12.749820	-85.754050	-29.347250	 54.455380	 54.319450	-4.924831	-0.455142	 29.031720	 4.664589	 3.329500	-77.455440	 6.705779	-27.713470	 6.857756	 14.059750	 17.927890	-5.324507	-8.239867	-2.131385	 0.447455
-0.009126	 0.949009	 0.059405	 4.920192	-29.869070	-155.656000	 120.899200	 72.305910	 75.744810	 124.191200	-83.639820	 123.565400	 40.511160	 67.093410	-71.836100	 3.487034	 50.824910	-3.971193	 111.708900	 78.423060	 50.378720	-147.394700	-80.913040	-147.256600	-57.292280	 58.373070	 78.287290	-1.444686	 30.906630	 3.706451	 2.655867	 9.623308	-8.249167	-6.553199	 12.762350	 1.182140	-2.105816	 13.773920	 14.978850	-99.741290	 4.478573	 91.159130	 60.216510	 44.635030	-40.871600	 4.751837	-0.250468	 0.491015	 12.109280	-25.804170	 2.287937	-4.068416	 8.980914	-7.728404	-6.813393	 8.372816	 2.031848	 4.963066	-4.014628	-0.346955	 4.112469	-16.485880	-0.188688	 10.341060	 0.896540	-42.913030	 89.826370	 17.518920	-81.228030	-38.487380	 32.188620	 76.238380	-5.060387	-0.467659	 29.549620	-5.432641	 6.972349	-71.312690	 3.136850	-26.681370	 3.606531	 14.143610	 18.455680	-5.468151	-8.239867	-2.131385	 0.447455
 0.053084	 0.903573	 0.096776	 13.890100	-51.458960	-141.522300	 46.288660	 62.206270	 150.799600	 117.130600	-84.085370	 116.550500	 24.386580	 66.025350	-53.275960	 3.297597	 50.594600	-3.827469	 50.925720	 75.142050	 65.031380	-12.423560	-68.168830	-10.895410	-31.526170	 64.103160	 64.968560	-1.582913	 32.874180	 2.548921	 4.749875	 12.340210	-8.750109	 3.575333	 21.321200	-0.464184	-11.562580	 16.033760	 11.215480	-101.614800	 11.895350	 93.955490	 60.145140	 32.722620	-42.186020	 4.674701	-0.246423	 0.239673	 21.702820	-32.603660	 4.201386	-5.734986	 8.259331	-7.518714	-6.655050	 6.824170	 1.745008	 4.963066	-4.014628	-0.346955	 5.847964	-18.035940	 0.040414	 7.269024	-13.085810	-45.533280	 77.933090	 18.245940	-74.620610	-32.736310	 21.982300	 81.548900	-46.198970	-3.821542	 40.627280	 2.227666	-11.273790	-73.757770	 9.325059	-17.099150	 2.801568	 14.198790	 19.060910	-5.646143	-8.239867	-2.131385	 0.447455
 0.188777	 0.886354	 0.012028	 39.479960	-56.432580	-113.568700	 41.307670	 57.447010	 173.308000	 41.902910	-82.139980	 40.814910	 3.056370	 65.851070	-40.929270	 3.381558	 51.318360	-4.331427	 16.501120	 67.812160	 101.619300	-27.299230	-79.357560	-26.439620	-53.919450	 70.695150	 89.809450	-1.757928	 34.966870	 2.974308	 5.958547	 12.646270	-11.021540	-4.749693	 20.828910	-0.084062	-2.585531	 22.521320	 11.355680	-107.423300	 14.888240	 95.551540	 51.064000	 29.146960	-35.716240	 4.554743	-0.240149	 0.433420	-1.175097	-31.706140	 4.121103	-7.696886	 5.633076	-7.574195	-6.511111	 5.284212	 1.462158	 4.963066	-4.014628	-0.346955	 8.916603	-8.953992	 0.910633	 9.217221	-15.335390	-44.368580	 69.623860	 13.919370	-69.984910	-31.287430	 30.009770	 88.697920	-85.949890	-5.273685	 17.312810	 47.365530	-32.287820	-40.553540	 15.185570	-34.166350	 8.928889	 14.492370	 20.938630	-6.271155	-8.239867	-2.131385	 0.447455
 0.413590	 1.004284	-0.078147	 46.859920	-43.946770	-105.638200	 20.869490	 75.711700	-164.338000	 6.691692	-51.647910	 4.992099	 4.524688	 43.760080	-33.857510	 3.125849	 50.075550	-3.196092	 7.700469	 70.966750	 134.116300	-14.275040	-70.734330	-13.798700	-50.176060	 58.246660	 72.050900	-1.672682	 33.700470	 2.874877	 6.269764	 12.799400	-10.141900	-17.949500	 11.015120	 4.039855	 5.815087	 25.713680	 16.643000	-110.930900	 14.249760	 95.498330	 47.102820	 34.018430	-29.293040	 4.507077	-0.237624	 0.458651	-5.345751	-32.697700	 8.559028	-6.924380	 0.667880	-8.290979	-6.533226	 5.088749	 1.430942	 4.963066	-4.014628	-0.346955	 6.964128	-5.656197	 1.695765	 9.623797	-5.985134	-43.430610	 74.436690	 12.998700	-76.361870	-28.657900	 15.222530	 75.279200	-35.833210	-3.100863	 16.364300	 35.793590	 9.552342	-0.637181	 4.430180	-4.130260	 1.251136	 15.354180	 25.160360	-7.736130	-8.239867	-2.131385	 0.447455
 0.549455	 1.034835	-0.148423	 32.090820	-27.497290	-99.166870	-129.114100	 84.864970	-70.714150	 67.504090	-84.301260	 72.679520	 50.252540	 32.706550	-55.855190	 1.542242	 48.938670	-7.379638	 74.019840	 75.471820	 86.622980	-14.844880	-71.407750	-15.261690	-59.774520	 54.018710	 75.042340	-1.642327	 33.253110	 2.844402	 4.668398	 11.516240	-10.108610	-16.738270	 2.677606	 1.905665	 10.628350	 22.279420	 20.046710	-107.538700	 6.282775	 91.996450	 35.560600	 54.642250	-19.528410	 4.416244	-0.230355	 0.325952	-11.355640	-12.168000	 5.925854	-4.358172	 3.725697	-8.104900	-6.779263	 6.731556	 1.746463	 4.963066	-4.014628	-0.346955	 8.088867	-3.046732	 3.193666	 5.732309	 3.663093	-40.112750	 84.930880	 9.932939	-89.294600	-35.099470	 40.396450	 58.706240	-65.773990	-4.823627	 8.784461	 8.561091	 38.487250	 8.824636	-3.680649	 15.454360	-1.592260	 14.292920	 21.413230	-6.336969	-8.239867	-2.131385	 0.447455
